<svg width="29.2" height="24.2" viewBox="0 0 29.2 24.2" fill="none" xmlns="http://www.w3.org/2000/svg">
<path d="M25.9235 12.4542L19.8383 6.36899V2.3559C19.8383 1.85559 19.4326 1.4504 18.9328 1.4504C18.432 1.4504 18.0268 1.85559 18.0268 2.3559V4.55843L13.7341 0.265241C13.3813 -0.0884138 12.8074 -0.0884138 12.4547 0.265241L0.265241 12.4542C-0.0884138 12.8083 -0.0884138 13.3809 0.265241 13.7345C0.618456 14.0882 1.19188 14.0882 1.54553 13.7345L13.0942 2.18546L24.6432 13.7345C24.8198 13.9098 25.0528 14.0005 25.284 14.0005C25.5139 14.0005 25.7469 13.912 25.9235 13.7345C26.2772 13.38 26.2772 12.8079 25.9235 12.4542Z" fill="rgba(207, 85, 108,0.9)"/>
<path d="M23.3325 13.4934L13.7341 3.89404C13.5645 3.72448 13.3342 3.62891 13.0937 3.62891C12.8537 3.62891 12.6234 3.72448 12.4538 3.89404L2.85534 13.4934C2.72717 13.6202 2.64085 13.7836 2.6065 13.9611C2.57964 14.0994 2.56642 14.2399 2.56642 14.376V19.0611C2.56642 20.2674 3.54811 21.2504 4.75486 21.2504H9.44002C10.0469 21.2504 10.6322 20.9941 11.0453 20.5462C11.4215 20.1397 11.6285 19.6125 11.6285 19.0607V15.6202C11.6285 14.7851 12.2684 14.0875 13.095 14.0091C13.9221 14.0875 14.5621 14.7851 14.5621 15.6202V19.0607C14.5621 19.6121 14.77 20.1397 15.1452 20.5462C15.5583 20.9941 16.1445 21.2504 16.7509 21.2504H21.4361C22.6429 21.2504 23.6254 20.2688 23.6254 19.0607V14.3773C23.6254 14.2399 23.6118 14.0998 23.5849 13.9629C23.5492 13.7836 23.4611 13.6202 23.3325 13.4934Z" fill="rgba(207, 85, 108,0.9)"/>
</svg>
