 <svg
                  width="60"
                  height="36"
                  viewBox="0 0 606 362"
                  fill="none"
                  xmlns="http://www.w3.org/2000/svg"
                >
                  <g id="Group 1">
                    <path
                      id="Vector 1"
                      d="M577.997 179.584C514.398 151.968 370.508 137.128 303.748 298.698C366.522 327.762 509.257 344.63 577.997 179.584Z"
                      fill="#D43D59"
                      fillOpacity="0.95"
                    />
                    <path
                      id="Vector 2"
                      d="M475.498 53.5109C406.845 63.2229 276.431 125.805 303.999 298.437C372.707 290.391 503.197 230.141 475.498 53.5109Z"
                      fill="#D43D59"
                      fillOpacity="0.8"
                    />
                    <path
                      id="Vector 3"
                      d="M304.142 0C253.475 47.3333 182.542 173.4 304.142 299C355.808 253 428.142 128.8 304.142 0Z"
                      fill="#D43D59"
                      fillOpacity="0.5"
                    />
                    <path
                      id="Vector 4"
                      d="M132.999 54.271C118.645 122.105 132.848 266.059 304.499 299.197C320.437 231.882 308.451 88.6542 132.999 54.271Z"
                      fill="#D43D59"
                      fillOpacity="0.3"
                    />
                    <path
                      id="Vector 5"
                      d="M22.9638 196.338C50.1136 260.138 144.317 369.911 303.932 298.602C278.377 234.318 186.407 123.868 22.9638 196.338Z"
                      fill="#D43D59"
                      fillOpacity="0.15"
                    />
                  </g>
                </svg>
              