<svg width="24" height="25" viewBox="0 0 24 25" fill="none" xmlns="http://www.w3.org/2000/svg">
<g clip-path="url(#clip0)">
<path d="M12.8651 15.2988C13.8272 16.2214 14.7783 16.8758 14.8183 16.9032C14.9592 16.9999 15.1209 17.0481 15.2826 17.0481C15.4443 17.0481 15.6061 16.9998 15.7469 16.9032C15.787 16.8758 16.7379 16.2212 17.6996 15.2986C19.1046 13.951 19.8169 12.7126 19.8169 11.6177C19.8169 10.017 18.6103 8.71484 17.1275 8.71484C16.414 8.71484 15.7645 9.01619 15.2826 9.50702C14.8005 9.01619 14.151 8.71484 13.4374 8.71484C11.9542 8.71484 10.7474 10.0171 10.7474 11.6177C10.7474 12.7127 11.4599 13.9513 12.8651 15.2988V15.2988ZM13.4374 10.4754C13.9888 10.4754 14.4375 10.9879 14.4375 11.6177C14.4375 12.1038 14.8159 12.498 15.2826 12.498C15.7493 12.498 16.1276 12.1038 16.1276 11.6177C16.1276 10.9879 16.5762 10.4754 17.1275 10.4754C17.6785 10.4754 18.1267 10.9879 18.1267 11.6177C18.1267 12.5659 16.5895 14.1047 15.2825 15.0962C13.9751 14.1048 12.4376 12.5659 12.4376 11.6177C12.4376 10.9879 12.8861 10.4754 13.4374 10.4754V10.4754Z" fill="#888888"/>
<path d="M21.7606 0H3.63378C3.16719 0 2.78877 0.394192 2.78877 0.880303V5.08367H2.23943C1.77277 5.08367 1.39434 5.47786 1.39434 5.96397C1.39434 6.45008 1.77277 6.84419 2.23943 6.84419H2.78877V9.44108H2.23943C1.77277 9.44108 1.39434 9.83527 1.39434 10.3214C1.39434 10.8075 1.77277 11.2016 2.23943 11.2016H2.78877V13.7985H2.23943C1.77277 13.7985 1.39434 14.1927 1.39434 14.6788C1.39434 15.1649 1.77277 15.5591 2.23943 15.5591H2.78877V18.156H2.23943C1.77277 18.156 1.39434 18.5501 1.39434 19.0362C1.39434 19.5223 1.77277 19.9165 2.23943 19.9165H2.78877V24.1199C2.78877 24.606 3.16719 25.0002 3.63378 25.0002H21.7606C22.2272 25.0002 22.6056 24.606 22.6056 24.1199V0.880303C22.6056 0.394192 22.2273 0 21.7606 0V0ZM20.9155 23.2394H4.47887V19.9163H5.0282C5.49487 19.9163 5.87329 19.5221 5.87329 19.036C5.87329 18.5499 5.49487 18.1558 5.0282 18.1558H4.47887V15.5589H5.0282C5.49487 15.5589 5.87329 15.1647 5.87329 14.6786C5.87329 14.1925 5.49487 13.7983 5.0282 13.7983H4.47887V11.2014H5.0282C5.49487 11.2014 5.87329 10.8073 5.87329 10.3212C5.87329 9.8351 5.49487 9.44091 5.0282 9.44091H4.47887V6.84419H5.0282C5.49487 6.84419 5.87329 6.45008 5.87329 5.96397C5.87329 5.47786 5.49487 5.08367 5.0282 5.08367H4.47887V1.76061H20.9155V23.2394Z" fill="#888888"/>
<path d="M7.81689 21.7879C8.28356 21.7879 8.66198 21.3937 8.66198 20.9076V4.09173C8.66198 3.60562 8.28356 3.21143 7.81689 3.21143C7.35022 3.21143 6.9718 3.60562 6.9718 4.09173V20.9075C6.9718 21.3937 7.35022 21.7879 7.81689 21.7879Z" fill="#888888"/>
</g>
<defs>
<clipPath id="clip0">
<rect width="24" height="25" fill="white"/>
</clipPath>
</defs>
</svg>
