<svg width="26" height="26" viewBox="0 0 26 26" fill="none" xmlns="http://www.w3.org/2000/svg">
<path d="M20.198 1.82223C20.0131 2.00718 4.63733 17.378 4.11731 17.8979V17.8979C4.07904 17.9364 4.04517 17.9864 4.02503 18.029L1.04534 24.33C0.898677 24.64 1.12573 25 1.46905 25H12.735C12.9939 25 13.2038 24.7901 13.2038 24.5312C13.2038 24.2723 12.9939 24.0624 12.735 24.0624H3.54895L7.96436 21.9677C8.00794 21.9471 8.0561 21.9144 8.094 21.8765L8.0951 21.8755C8.72517 21.2458 23.3661 6.60981 24.1758 5.8004C25.2746 4.70148 25.2748 2.92133 24.1758 1.82204C23.0792 0.725864 21.2948 0.726047 20.198 1.82223ZM20.5291 8.12021C19.7046 7.29561 18.7068 6.29777 17.8772 5.46803L18.8718 4.47367L21.5239 7.12585L20.5291 8.12021ZM5.16339 22.2588L3.73663 20.8316L4.58789 19.0316L6.96204 21.4056L5.16339 22.2588ZM7.76368 20.8814L5.11176 18.2296L17.2141 6.13094L18.209 7.12585L8.42634 16.9032C8.24342 17.0861 8.24323 17.383 8.42616 17.5661C8.60908 17.7492 8.90589 17.7494 9.08918 17.5663L18.872 7.78894L19.8661 8.78312L7.76368 20.8814ZM3.31091 21.7318L4.26416 22.6853L2.45379 23.5442L3.31091 21.7318ZM23.513 5.13731L22.1869 6.46294L19.5348 3.81076L20.8609 2.48532C21.592 1.75429 22.7818 1.75429 23.5128 2.48513C24.2454 3.21763 24.2456 4.40482 23.513 5.13731Z" fill="#555555"/>
<path d="M4.11731 17.8979C4.63733 17.378 20.0131 2.00718 20.198 1.82223C21.2948 0.726047 23.0792 0.725864 24.1758 1.82204C25.2748 2.92133 25.2746 4.70148 24.1758 5.8004C23.3661 6.60981 8.72517 21.2458 8.0951 21.8755L8.094 21.8765C8.0561 21.9144 8.00794 21.9471 7.96436 21.9677L3.54895 24.0624H12.735C12.9939 24.0624 13.2038 24.2723 13.2038 24.5312C13.2038 24.7901 12.9939 25 12.735 25H1.46905C1.12573 25 0.898677 24.64 1.04534 24.33L4.02503 18.029C4.04517 17.9864 4.07904 17.9364 4.11731 17.8979ZM4.11731 17.8979V17.8979ZM20.5291 8.12021C19.7046 7.29561 18.7068 6.29777 17.8772 5.46803L18.8718 4.47367L21.5239 7.12585L20.5291 8.12021ZM5.16339 22.2588L3.73663 20.8316L4.58789 19.0316L6.96204 21.4056L5.16339 22.2588ZM7.76368 20.8814L5.11176 18.2296L17.2141 6.13094L18.209 7.12585L8.42634 16.9032C8.24342 17.0861 8.24323 17.383 8.42616 17.5661C8.60908 17.7492 8.90589 17.7494 9.08918 17.5663L18.872 7.78894L19.8661 8.78312L7.76368 20.8814ZM3.31091 21.7318L4.26416 22.6853L2.45379 23.5442L3.31091 21.7318ZM23.513 5.13731L22.1869 6.46294L19.5348 3.81076L20.8609 2.48532C21.592 1.75429 22.7818 1.75429 23.5128 2.48513C24.2454 3.21763 24.2456 4.40482 23.513 5.13731Z" stroke="#555555" stroke-width="0.5" stroke-linejoin="round"/>
</svg>
