<svg width="28" height="28" viewBox="0 0 28 28" fill="none" xmlns="http://www.w3.org/2000/svg">
<path d="M11.375 19.25H23.625C24.5875 19.25 25.375 18.4625 25.375 17.5V5.25C25.375 4.2875 24.5875 3.5 23.625 3.5H4.375C3.4125 3.5 2.625 4.2875 2.625 5.25V17.5C2.625 18.4625 3.4125 19.25 4.375 19.25H6.125V24.5L11.375 19.25Z" stroke="#888888" stroke-width="2" stroke-miterlimit="10" stroke-linecap="round" stroke-linejoin="round"/>
<path d="M7.875 13.125C8.8415 13.125 9.625 12.3415 9.625 11.375C9.625 10.4085 8.8415 9.625 7.875 9.625C6.9085 9.625 6.125 10.4085 6.125 11.375C6.125 12.3415 6.9085 13.125 7.875 13.125Z" fill="#888888"/>
<path d="M14 13.125C14.9665 13.125 15.75 12.3415 15.75 11.375C15.75 10.4085 14.9665 9.625 14 9.625C13.0335 9.625 12.25 10.4085 12.25 11.375C12.25 12.3415 13.0335 13.125 14 13.125Z" stroke="#888888" stroke-width="2" stroke-miterlimit="10" stroke-linecap="round" stroke-linejoin="round"/>
<path d="M20.125 13.125C21.0915 13.125 21.875 12.3415 21.875 11.375C21.875 10.4085 21.0915 9.625 20.125 9.625C19.1585 9.625 18.375 10.4085 18.375 11.375C18.375 12.3415 19.1585 13.125 20.125 13.125Z" fill="#888888"/>
</svg>
