<svg width="25" height="24" viewBox="0 0 25 24" fill="none" xmlns="http://www.w3.org/2000/svg">
<path d="M12.3219 11.5609C13.9763 11.5609 15.4087 10.9913 16.5794 9.86735C17.7498 8.74364 18.3434 7.3687 18.3434 5.78026C18.3434 4.19237 17.75 2.81726 16.5792 1.69317C15.4085 0.56964 13.9761 0 12.3219 0C10.6672 0 9.235 0.56964 8.06446 1.69336C6.89392 2.81707 6.30035 4.19219 6.30035 5.78026C6.30035 7.3687 6.89392 8.74382 8.06446 9.86753C9.23538 10.9911 10.6678 11.5609 12.3219 11.5609V11.5609ZM9.10053 2.6878C9.9987 1.82556 11.0523 1.40643 12.3219 1.40643C13.5912 1.40643 14.645 1.82556 15.5434 2.6878C16.4415 3.55023 16.8783 4.56188 16.8783 5.78026C16.8783 6.99901 16.4415 8.01048 15.5434 8.87291C14.645 9.73533 13.5912 10.1545 12.3219 10.1545C11.0527 10.1545 9.99908 9.73515 9.10053 8.87291C8.20217 8.01067 7.76539 6.99901 7.76539 5.78026C7.76539 4.56188 8.20217 3.55023 9.10053 2.6878Z" fill="#555555"/>
<path d="M22.8579 18.4546C22.8241 17.987 22.7558 17.4769 22.6553 16.9382C22.5538 16.3954 22.4232 15.8824 22.2668 15.4134C22.105 14.9288 21.8855 14.4501 21.6137 13.9915C21.332 13.5154 21.0009 13.1008 20.6293 12.7597C20.2408 12.4028 19.7651 12.1159 19.215 11.9066C18.6668 11.6984 18.0593 11.593 17.4095 11.593C17.1543 11.593 16.9075 11.6935 16.4309 11.9914C16.1375 12.175 15.7944 12.3874 15.4114 12.6224C15.0839 12.8227 14.6402 13.0104 14.0923 13.1803C13.5576 13.3464 13.0148 13.4306 12.4788 13.4306C11.9432 13.4306 11.4004 13.3464 10.8654 13.1803C10.318 13.0106 9.87415 12.8229 9.54723 12.6226C9.16786 12.3898 8.82454 12.1774 8.5268 11.9912C8.05054 11.6933 7.80373 11.5928 7.54852 11.5928C6.8985 11.5928 6.2912 11.6984 5.74322 11.9068C5.19352 12.1157 4.71764 12.4026 4.32873 12.7599C3.95718 13.1012 3.62606 13.5156 3.34454 13.9915C3.07312 14.4501 2.85339 14.9286 2.69165 15.4136C2.53544 15.8826 2.40479 16.3954 2.30331 16.9382C2.20261 17.4761 2.13451 17.9864 2.10075 18.4552C2.06757 18.9135 2.05078 19.3905 2.05078 19.8724C2.05078 21.1252 2.46563 22.1394 3.28369 22.8874C4.09164 23.6255 5.16052 23.9998 6.46076 23.9998H18.4984C19.7983 23.9998 20.8672 23.6255 21.6753 22.8874C22.4936 22.14 22.9084 21.1254 22.9084 19.8722C22.9082 19.3887 22.8912 18.9117 22.8579 18.4546ZM20.6652 21.8684C20.1313 22.3562 19.4225 22.5934 18.4982 22.5934H6.46076C5.53627 22.5934 4.8275 22.3562 4.29382 21.8686C3.77026 21.3902 3.51582 20.737 3.51582 19.8724C3.51582 19.4227 3.53127 18.9787 3.56216 18.5524C3.5923 18.1342 3.65391 17.6748 3.74527 17.1866C3.83549 16.7045 3.95031 16.2521 4.08688 15.8425C4.21791 15.4497 4.39663 15.0608 4.61826 14.6862C4.82979 14.3291 5.07317 14.0228 5.34172 13.7759C5.59292 13.545 5.90954 13.3561 6.28262 13.2144C6.62766 13.0832 7.01542 13.0115 7.43637 13.0007C7.48768 13.0269 7.57904 13.0768 7.72705 13.1695C8.02822 13.3579 8.37536 13.5729 8.75912 13.8082C9.1917 14.0729 9.74903 14.3121 10.4149 14.5184C11.0956 14.7297 11.7899 14.837 12.479 14.837C13.1681 14.837 13.8626 14.7297 14.543 14.5186C15.2094 14.3119 15.7665 14.0729 16.1997 13.8078C16.5924 13.5668 16.9298 13.3581 17.231 13.1695C17.379 13.077 17.4704 13.0269 17.5217 13.0007C17.9428 13.0115 18.3306 13.0832 18.6758 13.2144C19.0487 13.3561 19.3653 13.5452 19.6165 13.7759C19.8851 14.0226 20.1284 14.3289 20.34 14.6863C20.5618 15.0608 20.7407 15.4499 20.8715 15.8423C21.0083 16.2524 21.1233 16.7047 21.2133 17.1865C21.3045 17.6755 21.3663 18.1351 21.3964 18.5526C21.4275 18.9772 21.4432 19.4214 21.4434 19.8724C21.4432 20.7372 21.1887 21.3902 20.6652 21.8684Z" fill="#555555"/>
</svg>
