<svg width="78" height="139" viewBox="0 0 78 139" fill="none" xmlns="http://www.w3.org/2000/svg">
<path d="M39.1186 0.540607C38.6122 0.594513 38.1921 0.659201 38.1705 0.680763C38.149 0.702326 37.9658 1.51092 37.7719 2.48123C37.2656 4.91779 36.533 8.09826 35.7034 11.5051C35.3263 13.09 34.9277 14.8905 34.8415 15.5158C34.3675 18.7501 33.0639 20.6584 29.3794 23.5262C28.7976 23.979 27.9788 24.5505 27.5479 24.7984C25.9534 25.7256 25.6625 25.9412 24.5098 27.0517C23.4001 28.119 19.0691 31.9356 17.6147 33.1323C17.2592 33.4234 16.5805 34.0595 16.1064 34.5339C15.6324 35.019 14.6628 35.957 13.9517 36.6039C12.0556 38.3612 11.5277 39.3747 11.2907 41.7465C11.0429 44.2801 11.7216 49.0562 13.1006 54.5978C13.9625 58.0262 14.8998 60.6676 16.3973 63.8697C16.8714 64.8723 17.6255 66.4679 18.0672 67.4167C19.554 70.5756 19.9849 72.2898 20.1465 75.6212C20.3512 79.8259 20.5882 81.3784 22.2581 89.8525C22.9368 93.2917 23.6371 96.9573 23.8095 97.9923C24.7899 104.008 24.9191 107.771 24.2404 110.542C24.0249 111.415 23.4432 112.784 23.2169 112.978C23.0769 113.097 22.7321 112.817 20.3727 110.66C13.3807 104.267 9.20064 101.809 5.69925 102.003C4.95588 102.046 4.61113 102.132 4.07246 102.38C2.65036 103.049 1.16362 104.45 0.560304 105.679C-0.215387 107.243 -0.183066 108.202 0.765 111.9C2.15478 117.323 4.84815 122.423 8.7697 127.091C12.4004 131.414 16.0849 134.508 19.7586 136.32C23.6371 138.228 27.2247 138.778 31.6203 138.152C33.4194 137.894 36.6838 137.786 39.8081 137.894C48.8794 138.185 51.6374 138.142 54.3308 137.657C57.8106 137.031 59.6313 136.136 62.9711 133.409C67.5067 129.7 71.2774 125.635 74.057 121.463C75.339 119.533 75.8777 118.412 75.9316 117.571C75.9747 116.978 76.007 116.87 76.2225 116.773C76.5134 116.633 76.8904 115.566 77.5368 113.032C77.8816 111.685 77.9247 111.372 77.9355 110.121C77.9355 108.925 77.9031 108.633 77.6984 108.116C77.052 106.477 75.4468 104.903 73.6584 104.159C73.152 103.954 72.7426 103.879 71.9669 103.836C70.9435 103.793 70.9327 103.793 69.6506 104.299C68.9396 104.59 67.5821 105.076 66.6341 105.388C63.5098 106.412 62.2708 107.059 60.8703 108.396C60.1484 109.086 54.5785 113.269 53.4689 113.959C53.0379 114.218 53.0056 113.981 53.275 112.655C53.6197 111.005 53.6089 110.66 53.2211 109.83C52.9302 109.226 52.8979 109.043 52.8979 108.127C52.8979 106.456 52.9194 106.272 55.3219 90.6072C56.2915 84.257 57.1857 78.1979 57.315 77.1306C57.7675 73.1308 57.8645 72.7965 59.7175 68.3223C61.9907 62.867 62.9926 59.9561 63.9946 55.8915C65.0288 51.6976 65.6537 47.5253 65.923 42.8678C66.0415 40.884 65.9769 40.2048 65.5783 39.5472C65.2443 38.9865 61.3012 34.8142 59.6744 33.294C58.1661 31.8925 55.6451 29.6823 53.3288 27.7417C47.9098 23.192 46.8324 22.2648 45.8951 21.3269C43.7727 19.203 42.9863 17.4887 42.2968 13.5212C41.4241 8.43248 40.5084 1.93139 40.5084 0.713107C40.5084 0.378888 40.5838 0.38967 39.1186 0.540607ZM41.2194 22.9333C45.0009 26.8684 47.4896 29.7147 50.991 34.1134C53.7598 37.5742 57.1642 42.1347 57.4227 42.7169C57.7567 43.4392 57.7029 44.2694 57.218 45.9836C56.981 46.8137 56.3562 49.1101 55.8175 51.1047C54.7401 55.1153 54.4493 56.0101 53.9214 56.9697C53.2426 58.2095 48.0498 65.3036 47.2418 66.1014C46.4122 66.9315 44.7747 66.8776 44.2037 66.0151C44.0421 65.7672 44.0421 65.627 44.1606 64.592C44.4515 61.9937 44.9147 59.7081 45.378 58.5329C45.7335 57.6165 46.1645 57.0667 47.0156 56.4306C47.9098 55.7514 48.233 55.2554 48.5885 54.0048C49.041 52.3876 48.9871 50.4901 48.4161 47.3205C47.7697 43.795 46.423 41.1536 44.0636 38.7925C43.2017 37.93 42.76 37.5742 42.1998 37.2939C41.4995 36.9489 41.4349 36.9381 40.5622 37.0028C39.765 37.0567 39.5388 37.0351 38.7631 36.7872C38.0197 36.55 37.6534 36.5069 36.5761 36.4961C35.1109 36.4853 34.3998 36.6794 33.247 37.3694C30.6399 38.9542 28.5929 41.5956 27.731 44.485C27.4186 45.5308 27.397 45.9836 27.494 50.5009C27.5479 53.0237 27.5802 53.1747 28.4959 55.1369C29.0238 56.2904 29.4656 56.8187 30.2412 57.2608C31.2863 57.8537 31.6957 58.5222 32.3636 60.7215C33.0747 63.0611 33.3979 65.0448 33.1824 65.6917C33.0854 66.0151 32.9885 66.1014 32.6114 66.1984C31.9327 66.3925 31.5341 66.3601 31.1678 66.1014C30.9846 65.972 29.7241 64.495 28.3667 62.8347C25.3716 59.1367 25.5763 59.3631 25.0377 59.0397C24.6821 58.8133 24.5744 58.6839 24.5205 58.3497C24.4774 58.1233 24.2512 57.595 24.0357 57.1853C23.4324 56.0856 22.8937 54.5654 22.5705 53.0345C22.118 50.9322 21.6979 49.6815 20.8252 47.8164C19.7371 45.4984 19.5001 44.7869 19.5001 43.8597C19.5001 42.9756 19.7479 42.1994 20.2865 41.4015C20.4912 41.0889 24.2189 36.7764 28.5606 31.817C35.7357 23.634 38.5261 20.5937 38.8493 20.583C38.9139 20.583 39.9805 21.6395 41.2194 22.9333Z" fill="#D85F75"/>
</svg>
