<svg width="58" height="103" viewBox="0 0 58 103" fill="none" xmlns="http://www.w3.org/2000/svg">
<path d="M29.0884 0.0884764C28.7119 0.128711 28.3994 0.176992 28.3834 0.193086C28.3674 0.209179 28.2312 0.812695 28.087 1.53691C27.7105 3.35551 27.1657 5.72934 26.5489 8.27215C26.2685 9.45504 25.9721 10.7989 25.908 11.2656C25.5555 13.6796 24.5862 15.1039 21.8464 17.2444C21.4138 17.5824 20.805 18.0089 20.4845 18.1939C19.2989 18.886 19.0826 19.0469 18.2254 19.8757C17.4003 20.6724 14.1798 23.521 13.0983 24.4142C12.834 24.6314 12.3293 25.1062 11.9768 25.4603C11.6243 25.8224 10.9033 26.5225 10.3746 27.0053C8.96464 28.3169 8.57209 29.0733 8.39585 30.8436C8.2116 32.7346 8.71629 36.2994 9.74171 40.4355C10.3826 42.9944 11.0796 44.9659 12.1931 47.3558C12.5456 48.1042 13.1063 49.2951 13.4348 50.0032C14.5403 52.361 14.8608 53.6404 14.9809 56.1269C15.1331 59.2652 15.3094 60.4239 16.5511 66.7488C17.0558 69.3157 17.5765 72.0517 17.7047 72.8242C18.4337 77.3143 18.5298 80.1227 18.0251 82.1907C17.8649 82.8425 17.4323 83.8645 17.2641 84.0093C17.1599 84.0978 16.9036 83.8886 15.1492 82.2793C9.94999 77.5075 6.84171 75.6728 4.23811 75.8176C3.68535 75.8498 3.429 75.9142 3.02845 76.0993C1.97099 76.5982 0.865462 77.6443 0.416843 78.5616C-0.159953 79.7284 -0.13592 80.4446 0.569053 83.2046C1.60248 87.2522 3.60524 91.0584 6.52126 94.5427C9.22099 97.7695 11.9608 100.079 14.6925 101.431C17.5765 102.855 20.2442 103.266 23.5127 102.799C24.8505 102.606 27.2779 102.525 29.6011 102.606C36.3464 102.823 38.3972 102.791 40.4 102.429C42.9876 101.962 44.3414 101.294 46.8249 99.2582C50.1975 96.49 53.0014 93.4564 55.0682 90.3422C56.0216 88.9018 56.4221 88.065 56.4622 87.4373C56.4942 86.9947 56.5182 86.9143 56.6785 86.8418C56.8948 86.7372 57.1751 85.9406 57.6558 84.0496C57.9122 83.0437 57.9442 82.8103 57.9522 81.8769C57.9522 80.9837 57.9282 80.7664 57.776 80.3802C57.2953 79.1571 56.1017 77.9822 54.7718 77.427C54.3953 77.2741 54.0909 77.2178 53.5141 77.1856C52.753 77.1534 52.745 77.1534 51.7917 77.5316C51.263 77.7489 50.2536 78.111 49.5486 78.3443C47.2254 79.1088 46.3041 79.5916 45.2627 80.5894C44.726 81.1044 40.5843 84.2266 39.7591 84.7416C39.4387 84.9347 39.4146 84.7577 39.6149 83.7679C39.8713 82.5368 39.8633 82.2793 39.5749 81.6596C39.3586 81.209 39.3345 81.0722 39.3345 80.3882C39.3345 79.141 39.3506 79.0042 41.137 67.3121C41.858 62.5725 42.5229 58.0501 42.6191 57.2535C42.9555 54.2681 43.0276 54.0186 44.4055 50.6792C46.0959 46.6075 46.8409 44.4348 47.5859 41.4011C48.355 38.2709 48.8196 35.1568 49.0199 31.6805C49.108 30.1999 49.0599 29.6929 48.7635 29.2021C48.5152 28.7836 45.5832 25.6695 44.3735 24.5349C43.2519 23.4888 41.3774 21.8392 39.655 20.3907C35.6254 16.995 34.8243 16.3029 34.1273 15.6029C32.5492 14.0176 31.9644 12.7382 31.4517 9.77691C30.8028 5.97879 30.1218 1.12652 30.1218 0.217226C30.1218 -0.0322268 30.1779 -0.0241799 29.0884 0.0884764ZM30.6506 16.8018C33.4624 19.7389 35.313 21.8633 37.9166 25.1464C39.9754 27.7295 42.5069 31.1333 42.6992 31.5679C42.9475 32.107 42.9075 32.7266 42.547 34.0061C42.3707 34.6257 41.9061 36.3396 41.5055 37.8283C40.7044 40.8218 40.4881 41.4896 40.0956 42.2058C39.5909 43.1312 35.7296 48.426 35.1287 49.0215C34.5119 49.6411 33.2942 49.6009 32.8696 48.9571C32.7494 48.7721 32.7494 48.6675 32.8376 47.895C33.0539 45.9557 33.3983 44.2497 33.7428 43.3726C34.0072 42.6886 34.3276 42.2782 34.9605 41.8035C35.6254 41.2965 35.8657 40.9264 36.1301 39.9929C36.4666 38.7859 36.4265 37.3696 36.0019 35.0039C35.5213 32.3725 34.5199 30.4011 32.7655 28.6388C32.1246 27.995 31.7961 27.7295 31.3796 27.5203C30.8588 27.2628 30.8108 27.2547 30.1619 27.303C29.5691 27.3432 29.4008 27.3271 28.824 27.1421C28.2713 26.965 27.9989 26.9329 27.1978 26.9248C26.1083 26.9168 25.5796 27.0616 24.7224 27.5766C22.7837 28.7595 21.2616 30.731 20.6207 32.8875C20.3884 33.6681 20.3724 34.006 20.4445 37.3777C20.4845 39.2607 20.5086 39.3733 21.1895 40.8378C21.582 41.6989 21.9105 42.0932 22.4873 42.4231C23.2644 42.8657 23.5688 43.3646 24.0655 45.0061C24.5942 46.7523 24.8345 48.2329 24.6743 48.7157C24.6022 48.9571 24.5301 49.0215 24.2497 49.0939C23.745 49.2388 23.4486 49.2146 23.1762 49.0215C23.0401 48.925 22.1028 47.8225 21.0934 46.5833C18.8663 43.8232 19.0185 43.9922 18.618 43.7508C18.3536 43.5818 18.2735 43.4853 18.2334 43.2358C18.2014 43.0668 18.0331 42.6725 17.8729 42.3668C17.4243 41.546 17.0238 40.4114 16.7834 39.2687C16.447 37.6996 16.1345 36.7661 15.4856 35.374C14.6765 33.6439 14.5003 33.1129 14.5003 32.4208C14.5003 31.761 14.6845 31.1816 15.0851 30.5861C15.2373 30.3528 18.0091 27.134 21.2376 23.4325C26.5729 17.3249 28.6478 15.0557 28.8881 15.0476C28.9362 15.0476 29.7293 15.8362 30.6506 16.8018Z" fill="#D85F75"/>
</svg>
