<svg width="102" height="104" viewBox="0 0 102 104" fill="none" xmlns="http://www.w3.org/2000/svg">
<path d="M5.0547 0.75908C5.0547 0.976319 5.42489 1.47516 5.88362 1.87746C6.10091 2.07056 6.88154 2.52113 7.80703 2.97974C9.51316 3.82456 10.7847 4.63719 12.2574 5.81994C12.7886 6.24637 13.4566 6.70498 13.7382 6.83372C14.2131 7.06705 14.2855 7.07509 14.9293 7.03486C15.5007 6.99463 15.6777 7.01073 16.056 7.15555C16.5952 7.3567 17.8909 8.21761 18.8164 8.99001C20.6271 10.5107 24.5705 14.4371 26.164 16.3118C26.7273 16.9715 27.1458 17.3175 28.1437 17.9531C28.5783 18.2267 29.0853 18.5727 29.2624 18.7175C29.697 19.0554 30.2764 19.9324 30.8478 21.1071C31.6526 22.7646 31.9423 23.1588 34.2761 25.6611C35.1131 26.5622 35.6523 27.2059 35.7972 27.4955C36.1834 28.2679 37.4309 31.5828 37.3826 31.7116C37.3021 31.9127 36.9963 31.8644 36.441 31.5748C35.942 31.3254 35.9018 31.3173 35.0407 31.3334L34.1554 31.3575L33.7289 30.9472C33.3184 30.561 33.2702 30.5369 32.9482 30.5691C32.5298 30.6173 31.9584 30.9713 31.0651 31.7438C30.1879 32.5001 30.1557 32.5081 29.037 32.2024L28.5059 32.0575L27.7494 32.3955C27.3309 32.5805 26.6227 32.9104 26.172 33.1357C25.4558 33.4897 25.327 33.5219 25.0051 33.4817L24.643 33.4334L23.7336 34.3345L22.8161 35.2357L22.5586 36.0161C22.2689 36.8851 22.124 37.1908 21.786 37.6575C21.6009 37.9149 21.5526 38.0598 21.5526 38.4057C21.5526 38.6391 21.4963 39.0977 21.4238 39.4195C21.3514 39.7574 21.3031 40.385 21.3031 40.8919C21.3031 42.3563 21.7216 43.5149 23.1944 46.162C24.4981 48.5033 24.812 48.7205 26.9285 48.7608C27.8701 48.7688 28.2564 48.8091 28.4335 48.8976C28.691 49.0343 28.6829 49.0102 28.5864 49.7987C28.5139 50.3297 28.7634 50.8205 29.3268 51.2309C30.0993 51.8102 30.3166 52.2286 30.4856 53.5078C30.6385 54.6182 30.8961 54.9481 31.725 55.0527C32.2722 55.1331 32.5298 55.2699 32.739 55.6239C32.9322 55.9297 32.9322 55.8733 32.7712 57.3538C32.7229 57.7641 32.739 57.8204 32.9402 58.0377C33.1575 58.271 33.1575 58.271 33.1173 59.1963C33.0448 60.7009 32.7712 61.4411 31.5399 63.4525C31.1938 64.0158 30.5822 65.1261 30.1798 65.9146C29.7533 66.7594 29.2785 67.564 29.0451 67.8536C28.8036 68.1513 28.2001 68.6824 27.5321 69.1893C26.1318 70.2594 25.319 71.0961 22.7598 74.1616C20.3615 77.034 19.8384 77.5972 18.5347 78.7075C17.3758 79.6972 16.4906 80.6064 15.8709 81.4592C14.7281 83.0282 14.535 83.2454 13.7382 83.8649C12.8288 84.5649 12.6518 84.8224 12.3379 85.8281C12.0804 86.6408 11.7907 87.1879 10.8974 88.5476C10.5352 89.1108 10.0604 89.8511 9.85116 90.197C8.76472 91.9671 7.74265 93.0533 6.16529 94.0832C5.36856 94.6062 4.82936 95.0407 4.04873 95.805C3.46929 96.3602 2.85766 96.9073 2.68061 97.0119C2.50356 97.1165 2.20579 97.3337 2.02069 97.5027C1.84364 97.6717 1.54587 97.8406 1.37687 97.8889C0.58014 98.1061 0.201895 99.1119 0.692808 99.6831C0.821572 99.828 1.02277 100.158 1.14348 100.415C1.41711 100.987 1.54587 101.075 3.32443 101.912C5.58585 102.974 6.59987 103.247 8.75667 103.376C9.52925 103.416 10.3904 103.497 10.664 103.537C11.5573 103.69 11.7585 103.32 11.179 102.596C11.01 102.378 10.7203 101.92 10.5352 101.582C10.1892 100.954 9.83507 100.584 9.26368 100.238C8.12089 99.5624 8.61181 97.9291 10.4387 96.328C12.016 94.9441 13.7463 93.9706 17.1263 92.5464C19.2027 91.6775 20.772 90.7603 22.8805 89.1752C23.8221 88.4752 25.0534 87.7591 25.327 87.7591C25.3833 87.7591 26.164 87.4695 27.0573 87.1235C28.9244 86.3913 29.4958 86.2143 30.6063 86.0293C31.049 85.9569 31.6284 85.8603 31.894 85.8201C32.1596 85.7718 32.9563 85.5224 33.6645 85.2649C34.3727 85.0155 35.4752 84.6856 36.111 84.5488C38.7346 83.9615 40.5292 83.1328 44.8992 80.5098C48.1102 78.5868 48.7621 78.265 50.8465 77.6213C52.0134 77.2593 53.0435 76.8007 54.8704 75.8352C55.5142 75.4972 56.2546 75.1271 56.5121 75.0145C56.7696 74.8938 57.1479 74.6524 57.3491 74.4674L57.7112 74.1375L58.7252 74.1857C59.7634 74.234 61.1557 74.4593 63.232 74.9018C64.2701 75.1191 64.6403 75.1593 66.4189 75.2237C67.5295 75.2639 69.807 75.28 71.489 75.2639C75.4646 75.2156 76.4062 75.0869 78.5227 74.3064C80.7037 73.5099 82.442 73.18 84.5666 73.1639C86.1601 73.1559 86.0957 73.0835 85.6611 74.3869C84.7758 77.0662 84.6471 79.7696 85.2909 82.127C85.7577 83.8328 85.8623 84.2994 85.9347 84.935C85.975 85.3132 86.0152 85.8442 86.0152 86.1178C86.0152 86.3833 86.0957 86.9224 86.1842 87.3247C86.3452 87.9764 86.3613 88.3143 86.3934 91.235C86.4337 94.7993 86.3693 95.5476 85.8542 97.3337C85.3875 98.9429 85.4519 99.4981 86.1359 99.828C86.49 99.9969 86.5061 99.9969 92.8719 99.9647C101.153 99.9165 102.256 99.828 101.958 99.2728C101.893 99.1682 101.781 99.1038 101.644 99.1038C101.378 99.1038 100.887 98.8705 100.453 98.5326C100.171 98.3234 100.01 98.2751 99.4469 98.2107C98.6019 98.1142 97.7167 97.8165 96.1956 97.1085C95.5357 96.8027 94.6987 96.4326 94.3446 96.2797C92.5983 95.5636 91.8096 93.9142 91.5601 90.4786C91.3992 88.3384 91.5843 85.9488 92.2925 80.8799C92.4454 79.7615 92.5661 78.4662 92.6144 77.38C92.719 75.1271 92.8236 73.9846 93.065 72.5605C93.2984 71.1444 93.2984 71.1444 93.0972 69.495C92.8317 67.3307 92.7995 67.1778 92.5741 66.7996C92.0993 65.979 89.8298 65.1422 87.4075 64.8767C86.7958 64.8123 85.7577 64.6997 85.0897 64.6272C84.4298 64.5548 83.3755 64.41 82.7559 64.3054C80.4783 63.9112 79.5368 63.8468 75.0702 63.7824C70.7245 63.7261 70.4669 63.71 70.0726 63.3882C69.8955 63.2434 69.8794 63.1468 69.7829 61.6905C69.6702 59.9285 69.461 58.5767 69.0747 57.0641C67.8192 52.1803 64.7128 46.6367 60.6165 41.962C57.0513 37.8988 57.164 37.9954 55.0635 37.046C53.6149 36.3943 52.8584 35.9357 51.5386 34.946C48.8345 32.9024 46.6938 30.8346 45.036 28.6622C44.8348 28.3967 44.191 27.4875 43.6035 26.6507C41.8491 24.1324 40.9638 23.1266 39.137 21.5416C35.8535 18.7094 33.415 16.4244 31.9664 14.8555C30.3005 13.0371 29.8418 12.6911 21.6331 6.96245C20.772 6.35901 19.7419 5.61879 19.3556 5.305C18.4301 4.58087 17.9472 4.3395 17.0781 4.19467C16.0721 4.01766 15.2271 3.71996 13.2634 2.85101C11.7504 2.1832 11.4607 2.0786 10.9296 2.03033C10.0202 1.94987 9.02224 1.71654 7.30002 1.17747C6.43891 0.911952 5.58585 0.670576 5.40075 0.646438C5.09494 0.606209 5.0547 0.622301 5.0547 0.75908ZM39.7486 34.8414C40.0142 35.2035 40.5936 36.9253 40.5051 37.0782C40.4488 37.1667 39.5555 37.1184 39.2738 37.0138C39.145 36.9575 38.6139 35.9035 38.6139 35.7023C38.6139 35.5575 38.9277 34.3345 38.9841 34.238C39.0485 34.1334 39.4911 34.4793 39.7486 34.8414ZM36.9641 44.2873C37.2699 44.6252 37.7206 45.5424 37.7769 45.9528C37.8413 46.4033 37.7125 46.7493 37.4389 46.878C36.956 47.0953 36.7629 46.9183 36.7629 46.2424C36.7629 45.824 36.6341 45.47 36.4088 45.285C36.2478 45.1482 36.2398 44.6976 36.4007 44.3919C36.4973 44.1988 36.5617 44.1424 36.7387 44.0781C36.7468 44.07 36.8514 44.1666 36.9641 44.2873ZM46.549 57.5549C47.1445 57.6676 47.3779 57.6756 47.7239 57.6032C48.1183 57.5227 48.1827 57.5308 48.5529 57.7239C49.1806 58.0457 49.3496 58.0699 49.8486 57.9411C50.4119 57.7963 50.5568 57.7963 50.6936 57.9572C50.774 58.0538 50.774 58.1342 50.6936 58.3595C50.6131 58.5767 50.6131 58.6653 50.6855 58.7538C50.7901 58.8825 50.7579 59.2687 50.5889 59.856C50.5004 60.1537 50.4038 60.2825 50.1383 60.4675C49.7117 60.7491 48.6253 61.9882 48.4643 62.3744C48.408 62.5273 48.3517 62.7365 48.3517 62.8491C48.3517 62.9537 48.231 63.187 48.0861 63.364C47.9412 63.5411 47.7481 63.8548 47.6676 64.0721C47.5871 64.2893 47.4342 64.5951 47.3376 64.7479C47.1686 64.9974 47.1606 65.0698 47.233 65.3433C47.3698 65.8261 47.1606 66.2847 46.6777 66.5663C46.4685 66.687 45.4142 67.6605 44.3278 68.7226C41.0443 71.9651 38.3161 74.2823 34.1232 77.4121C32.8114 78.3857 31.6123 79.0133 30.4454 79.3432C30.0511 79.4478 28.6749 79.7615 27.3872 80.0271C25.3512 80.4535 22.969 81.0408 21.6733 81.4431L21.2709 81.5638L21.6733 81.1535C22.2689 80.55 23.4277 79.6972 25.0132 78.7156C27.4919 77.1708 28.4898 76.4064 30.043 74.8455C31.7169 73.18 33.1494 71.3134 34.7992 68.6502C36.0627 66.6146 36.5134 65.9548 37.2538 65.0295C37.8896 64.233 37.9781 64.0721 39.3382 61.2882C40.1912 59.5262 40.9316 58.1262 41.0363 58.0618C41.157 57.9894 41.5513 57.9492 43.4264 57.8285C44.2795 57.7722 44.8992 57.6837 45.1969 57.5871C45.7683 57.4021 45.6718 57.4021 46.549 57.5549Z" fill="#D85F75"/>
</svg>
