<svg width="103" height="102" viewBox="0 0 103 102" fill="none" xmlns="http://www.w3.org/2000/svg">
<path d="M50.9134 0.303767C50.7444 0.559566 50.6076 0.647497 50.1167 0.831353C48.451 1.43088 46.6646 3.11756 45.6909 5.00408C45.2242 5.90737 45.1116 6.27508 44.9023 7.51411C44.6126 9.20079 44.5885 9.5685 44.6368 11.471C44.6851 13.3016 44.6851 13.3096 44.4839 13.7892C44.1862 14.4846 44.154 14.7804 44.2988 15.3959C44.6126 16.7389 45.53 18.2017 46.9462 19.6006C47.7429 20.392 47.9923 20.6958 48.2096 21.1434L48.4832 21.695L48.5073 23.6455C48.5395 25.8277 48.4912 26.1795 48.0728 27.0188C47.2923 28.5616 45.0874 29.6887 41.8848 30.1763C41.4422 30.2403 40.3237 30.3362 39.3902 30.3842C38.1832 30.4401 37.5475 30.5121 37.1773 30.616C35.6082 31.0716 33.8781 32.7024 32.8964 34.6528C32.2285 35.9718 32.0515 36.955 31.971 39.7288C31.9227 41.6553 31.9952 42.7345 32.2848 44.4052C32.3894 45.0447 32.4619 45.868 32.486 46.8832C32.5262 48.474 32.4699 49.0495 32.1159 50.6803C31.8423 51.9672 31.7779 52.7746 31.7135 55.7563C31.6411 58.8898 31.625 59.0097 31.1422 59.6572C30.6111 60.3767 28.3419 61.7036 23.7391 63.9898C22.4355 64.6373 21.1238 65.2528 20.818 65.3567C20.5203 65.4527 19.4501 65.7245 18.4442 65.9483C17.4384 66.1721 16.4405 66.4439 16.2152 66.5478C15.8048 66.7317 14.63 66.9075 13.7931 66.9075C12.7712 66.9075 11.4273 66.5238 8.73164 65.4687C6.96937 64.7812 6.18078 64.5414 5.32781 64.4614C5.03008 64.4295 4.71625 64.3575 4.62773 64.3016C4.39437 64.1577 2.24586 63.6301 1.8918 63.6301C1.4975 63.6301 1.11125 64.0058 0.942265 64.5574C0.877891 64.7732 0.692812 65.1649 0.531875 65.4287C0.113437 66.1082 0.0410156 66.4199 0.0410156 67.5071C0.0490625 68.5782 0.226094 69.5215 0.692812 71.0003C0.837656 71.4799 0.998594 72.0875 1.03883 72.3513C1.16758 73.1426 1.52969 73.6303 2.19758 73.918C3.08273 74.3097 7.20273 74.4536 8.81211 74.1499C9.97086 73.934 11.1537 73.5343 12.2159 72.9828C12.7309 72.719 13.1735 72.5031 13.2137 72.5031C13.2459 72.5031 13.2781 72.671 13.2781 72.8788C13.2781 73.5583 13.5115 75.9085 13.6 76.1403C13.6483 76.2682 13.8092 76.508 13.9621 76.6759C14.115 76.8437 14.5495 77.4433 14.9197 78.0108C15.66 79.122 16.1991 79.6735 16.8751 80.0013C17.2452 80.1851 17.3337 80.281 17.5832 80.7447C17.7361 81.0325 17.889 81.4002 17.9212 81.56C17.9775 81.8078 18.227 82.0317 20.0777 83.5105C23.6023 86.3083 25.0587 87.3395 26.644 88.1629C27.843 88.7864 28.7281 89.0821 30.1122 89.3379C31.6089 89.6097 32.2366 89.7696 33.1298 90.1213C33.5402 90.2812 34.208 90.4651 34.6184 90.529C36.1312 90.7768 36.3405 90.8248 36.8957 91.0886C37.2095 91.2325 37.5475 91.4483 37.6521 91.5602C37.8452 91.768 37.8452 91.768 37.7004 92.0878C37.5636 92.3836 37.5314 92.4075 37.2256 92.4075C36.8233 92.4075 35.3909 92.2397 33.4758 91.9599C30.764 91.5682 30.0719 91.7441 28.5109 93.2309C27.0463 94.6378 26.1209 95.8608 25.8393 96.7561C25.622 97.4596 25.5737 98.139 25.6542 99.3301C25.7266 100.313 25.7508 100.425 26.0324 100.993C26.6762 102.28 27.3119 102.312 29.6133 101.161C31.2307 100.353 31.3273 100.313 32.1883 100.241C32.6067 100.209 33.1539 100.113 33.3953 100.034C33.854 99.8897 33.9264 99.8897 37.298 99.9296C38.3522 99.9456 39.2293 99.8897 41.1605 99.6898C42.5366 99.5539 43.8482 99.402 44.0816 99.3541C44.323 99.3061 45.3369 98.9544 46.3347 98.5627C48.628 97.6834 48.5878 97.6914 50.8168 97.1638C52.4423 96.7721 52.6917 96.6922 52.909 96.4923C53.1745 96.2365 53.4964 96.0846 53.7861 96.0846C54.1482 96.0846 54.7759 96.3245 55.0897 96.5883C55.2828 96.7561 55.5323 96.884 55.7415 96.916C55.9266 96.948 56.3209 97.0919 56.6266 97.2357C57.2704 97.5395 57.8578 97.7234 58.582 97.8353C59.5396 97.9872 63.6837 98.3069 67.5543 98.5227C68.7533 98.5867 69.8476 98.6746 69.9925 98.7146C70.1373 98.7546 70.4753 98.9304 70.7569 99.0983C71.1754 99.3461 71.3444 99.402 71.7869 99.426C72.3824 99.466 73.3963 99.3301 73.6297 99.1862C73.8469 99.0503 74.032 98.5547 74.0883 97.9632C74.1527 97.2757 73.9676 96.7162 73.4446 95.9967C73.2032 95.669 72.8411 95.0694 72.6238 94.6618C72.3341 94.1022 72.0364 93.6945 71.4168 93.0151C70.9662 92.5115 70.5719 92.0718 70.5397 92.0238C70.419 91.824 70.9983 91.5922 72.2537 91.3284C73.9113 90.9846 74.6436 90.7848 75.2712 90.497C75.746 90.2892 79.8821 87.5953 80.4293 87.1477C80.5661 87.0357 81.1937 86.4682 81.8294 85.8846C82.4732 85.2851 83.2537 84.6456 83.5998 84.4378C84.3401 83.9821 85.354 83.1428 86.5369 82.0157C87.8565 80.7527 88.3957 79.9053 88.7658 78.5384C88.9107 77.9868 88.9429 77.5632 88.9992 75.5008C89.0716 73.1506 89.1038 72.703 89.2487 72.6151C89.2889 72.5911 89.5303 72.695 89.7878 72.8469C91.4213 73.8301 93.1594 74.3417 94.0365 74.1099C94.2216 74.0619 94.6159 73.8621 94.9217 73.6622L95.4689 73.3025L96.3621 73.3185C97.5289 73.3345 97.7542 73.2306 98.2209 72.4712C98.4945 72.0235 98.9854 71.5439 99.1785 71.5439C99.2026 71.5439 99.5245 71.4 99.8947 71.2241C100.514 70.9364 100.603 70.8564 101.182 70.153C101.528 69.7373 102.075 69.1378 102.405 68.834L103.001 68.2825V67.627V66.9635L102.317 67.0035C101.721 67.0354 101.552 67.0754 100.973 67.3632C100.506 67.595 100.12 67.8668 99.7015 68.2665C99.3716 68.5782 99.0498 68.818 98.9773 68.81C98.744 68.7621 98.583 68.2025 98.2612 66.308C97.8186 63.6701 97.5369 62.8147 96.9254 62.2792C96.1931 61.6397 95.7425 61.7356 94.4872 62.8147C92.9583 64.1337 92.4915 64.4055 91.1397 64.7492C90.0131 65.029 89.4901 65.2928 89.0475 65.8044C88.8705 66.0122 88.629 66.2041 88.5164 66.2281C88.1704 66.3 86.1908 65.9003 85.9897 65.7165C85.9012 65.6285 85.5471 65.4607 85.2172 65.3408C84.0021 64.9091 83.133 64.4055 80.8719 62.8307C80.0994 62.2951 79.1176 61.6237 78.6831 61.3439C78.1762 61.0162 77.8301 60.7284 77.6933 60.5285C77.2347 59.8411 76.5668 57.5868 76.2127 55.5564C75.8908 53.7019 75.8426 53.0064 75.8426 50.5604C75.8506 48.1702 75.8506 48.1542 76.1805 45.884C76.6473 42.7185 76.7197 41.7033 76.6553 39.1293C76.6231 37.9383 76.5668 36.6912 76.5185 36.3475C76.4058 35.5082 76.1081 34.6129 75.7058 33.9334C75.3839 33.3978 75.1344 33.126 73.3722 31.4393L72.6077 30.7039L71.449 30.4162C69.5821 29.9525 68.4555 29.6248 66.7898 29.0572C64.1987 28.1779 63.8125 28.058 63.1607 27.9301C61.4869 27.6183 60.6018 27.0268 60.1673 25.9317C59.9178 25.3002 59.8534 24.3569 59.9098 22.3425C59.9419 21.2873 59.9902 20.0883 60.0305 19.6806C60.0948 18.8252 60.0787 18.8492 61.149 17.9619C62.0583 17.2025 62.3641 16.7149 62.6537 15.5718C62.8227 14.9003 62.8791 14.4687 62.8791 13.9011C62.8871 13.1417 62.8791 13.1097 62.533 12.4462L62.187 11.7588L62.3158 11.1992C62.4606 10.5517 62.4848 9.0649 62.356 8.34546C62.1387 7.13041 61.5996 5.89938 60.6823 4.54844C59.6201 2.98167 59.5879 2.9417 57.9463 1.74264C57.0692 1.09515 56.7151 0.91129 56.1116 0.775397C55.653 0.671478 55.5886 0.615522 55.4437 0.215836L55.3633 4.86024e-06H53.2469H51.1226L50.9134 0.303767ZM41.1444 54.2135C41.2249 54.2774 41.3939 54.805 41.6031 55.6364C41.9733 57.1472 42.1584 57.7227 42.5527 58.674C43.0516 59.873 43.1481 60.3767 43.1884 62.1752C43.2366 64.0298 43.1401 65.1649 42.8504 66.2441C42.3676 68.0346 41.1927 70.5047 40.1547 71.8716C38.9074 73.5343 38.1671 74.1019 37.2498 74.1019C36.1956 74.1019 35.3346 73.6782 31.7216 71.352L30.0398 70.2569L29.9834 69.7613C29.9512 69.4895 29.911 69.1458 29.8788 69.0019L29.8386 68.7381L30.3053 68.7781C30.5709 68.802 31.2066 68.842 31.7296 68.866C32.6148 68.914 32.6711 68.906 32.6711 68.7621C32.6711 68.6662 32.5021 68.4983 32.2124 68.2984L31.7618 67.9867L32.3573 67.8828C32.7998 67.8108 33.0654 67.8028 33.3873 67.8668C34.3448 68.0426 34.9886 67.9067 36.5014 67.1873C37.1854 66.8596 37.4992 66.6517 37.8774 66.284C39.2695 64.9251 40.0662 62.8627 40.4363 59.6732C40.5329 58.8019 40.718 55.4685 40.718 54.4133C40.718 54.1815 40.7502 54.1176 40.8628 54.1176C40.9433 54.1176 41.072 54.1655 41.1444 54.2135ZM69.1315 64.7892C69.6626 65.6046 71.0627 66.9795 71.8996 67.531C73.3319 68.4663 75.6414 69.4096 77.9669 69.9931L78.2325 70.0651L77.0094 71.1042C75.5126 72.3752 74.885 72.8309 74.1527 73.1986C73.5251 73.5183 71.3283 74.2618 71.0225 74.2618C70.6604 74.2618 70.5558 74.0779 70.4512 73.2705C70.419 73.0467 70.3224 72.687 70.2339 72.4712C70.081 72.0795 69.9442 71.8557 68.8096 70.2009C67.6267 68.4663 67.1198 66.7956 66.991 64.1897C66.9347 63.0945 67.0151 62.2472 67.2244 61.7516L67.3612 61.4318L68.0371 62.7908C68.4073 63.5422 68.8981 64.4375 69.1315 64.7892ZM5.04617 67.2672C5.55312 67.523 6.19687 68.1865 6.19687 68.4503C6.19687 68.7461 5.60141 69.4176 5.11055 69.6894C4.89328 69.8013 4.56336 69.6094 4.22539 69.1458C3.92766 68.7301 3.54141 68.0027 3.54141 67.8428C3.54141 67.6589 4.24148 67.0674 4.4507 67.0674C4.55531 67.0674 4.82086 67.1553 5.04617 67.2672Z" fill="#D85F75"/>
</svg>
